<?xml version="1.0" encoding="utf-8"?>
<svg xmlns="http://www.w3.org/2000/svg" viewBox="0 0 500 500">
  <defs>
    <radialGradient id="innerBg" cx="50%" cy="30%" r="68%">
      <stop offset="0" style="stop-color:#fed7d7;stop-opacity:1"/>
      <stop offset="0.5" style="stop-color:#feb2b2;stop-opacity:1"/>
      <stop offset="1" style="stop-color:#f56565;stop-opacity:1"/>
    </radialGradient>
    <linearGradient id="cubeTop" x1="0%" y1="0%" x2="100%" y2="100%">
      <stop offset="0" style="stop-color:#faf089;stop-opacity:1"/>
      <stop offset="1" style="stop-color:#f6e05e;stop-opacity:1"/>
    </linearGradient>
    <linearGradient id="cubeRight" x1="0%" y1="0%" x2="100%" y2="100%">
      <stop offset="0" style="stop-color:#ed8936;stop-opacity:1"/>
      <stop offset="1" style="stop-color:#dd6b20;stop-opacity:1"/>
    </linearGradient>
    <linearGradient gradientUnits="userSpaceOnUse" x1="276.779" y1="206.794" x2="276.779" y2="317.814" id="gradient-0" spreadMethod="pad" gradientTransform="matrix(1.597767, 0, 0, 1.312228, -260.411442, 14.630474)">
      <stop offset="0" style="stop-color: rgb(28.627% 13.333% 13.333% / 0.3)"/>
      <stop offset="1" style="stop-color: rgb(21.489% 6.9879% 7.3134% / 0.3)"/>
    </linearGradient>
  </defs>
  <circle cx="251.449" cy="253.244" r="200" style="stroke-width: 1; fill: rgb(44, 48, 57);" transform="matrix(1.247678, 0, 0, 1.237541, -63.64018, -61.155904)"/>
  <circle cx="251.449" cy="253.244" r="189.356" style="stroke-width: 1; fill: rgb(144, 64, 14);" transform="matrix(1.247678, 0, 0, 1.237541, -63.64018, -61.155904)"/>
  <circle cx="251.45" cy="252.927" r="157.603" style="stroke-width: 1; fill: rgb(255, 255, 255);" transform="matrix(1.247678, 0, 0, 1.237541, -63.64018, -61.155904)"/>
  <circle cx="251.449" cy="253.244" r="153.501" fill="url(#innerBg)" style="stroke-width: 1;" transform="matrix(1.247678, 0, 0, 1.237541, -63.64018, -61.155904)"/>
  <ellipse cx="181.817" cy="358.833" rx="82.665" ry="72.842" style="stroke-width: 2; fill: url(&quot;#gradient-0&quot;); paint-order: stroke; fill-rule: nonzero;"/>
  <g transform="matrix(2.097841, 0, 0, 2.462436, 254.730473, 249.715336)" style="">
    <path d="M -60,-30 L 0,-60 L 60,-30 L 0,0 Z" fill="url(#cubeTop)"/>
    <path d="M -60,-30 L 0,0 L 0,60 L -60,30 Z" style="fill: rgb(246, 173, 85);"/>
    <path d="M 0,0 L 60,-30 L 60,30 L 0,60 Z" fill="url(#cubeRight)"/>
    <path d="M -60,-30 L 0,-60 L 60,-30 L 0,0 Z" fill="none" stroke="#d69e2e" stroke-width="1.5" opacity="1"/>
    <path d="M -60,-30 L 0,0 L 0,60 L -60,30 Z" fill="none" stroke="#c05621" stroke-width="1.5" opacity="1"/>
    <path d="M 0,0 L 60,-30 L 60,30 L 0,60 Z" fill="none" stroke="#9c4221" stroke-width="1.5" opacity="1"/>
  </g>
  <ellipse cx="192.315" cy="163.84" rx="57.772" ry="62.585" fill="white" opacity="0.2" style="stroke-width: 1;"/>
</svg>